/vscmnt/brussel_pixiu_data/_data_brussel/112/vsc11236/PredSimResults/SUBJ09opt3D/trackIG/worker_07.mot
version=1
nRows=6
nColumns=50
inDegrees=yes
endheader
                time	         pelvis_tilt	         pelvis_list	     pelvis_rotation	           pelvis_tx	           pelvis_ty	           pelvis_tz	       hip_flexion_r	     hip_adduction_r	      hip_rotation_r	        knee_angle_r	       ankle_angle_r	         mtp_angle_r	       hip_flexion_l	     hip_adduction_l	      hip_rotation_l	        knee_angle_l	       ankle_angle_l	         mtp_angle_l	    lumbar_extension	      lumbar_bending	     lumbar_rotation	 ercspn_r/activation	 intobl_r/activation	 extobl_r/activation	    abd_r/activation	    add_r/activation	hamstrings_r/activation	bifemsh_r/activation	glut_max_r/activation	iliopsoas_r/activation	rect_fem_r/activation	  vasti_r/activation	gastroc_r/activation	 soleus_r/activation	tib_ant_r/activation	 ercspn_l/activation	 intobl_l/activation	 extobl_l/activation	    abd_l/activation	    add_l/activation	hamstrings_l/activation	bifemsh_l/activation	glut_max_l/activation	iliopsoas_l/activation	rect_fem_l/activation	  vasti_l/activation	gastroc_l/activation	 soleus_l/activation	tib_ant_l/activation	
          0.00000000	         -4.08648431	         -0.71673016	          8.03107705	          0.00000000	          0.99020490	         -0.00306431	         28.60310003	         -1.84305206	         -8.65458745	         -6.31782845	          4.02005253	          0.24397068	        -13.89030821	         -2.33367734	         -5.22207706	        -10.19222776	          3.93126605	         36.43259293	        -13.59503722	         -1.47049015	         -6.87257747	          0.02599758	          0.15844166	          0.03188968	          0.01000357	          0.21801777	          0.06271454	          0.12805884	          0.08480729	          0.13097902	          0.01214431	          0.01000461	          0.01465792	          0.01000401	          0.31953912	          0.02617690	          0.01000333	          0.01000458	          0.02781182	          0.01211623	          0.01467933	          0.15538794	          0.01221664	          0.01223170	          0.01001607	          0.01000586	          0.29940236	          0.21779879	          0.01214511	
          0.01279644	         -4.12508964	         -0.83020696	          8.02297414	          0.01988933	          0.98800997	         -0.00228328	         28.51389454	         -1.67811898	         -8.80370188	         -8.08955241	          3.62181926	          0.20881361	        -14.55030737	         -2.67267780	         -5.65884585	        -10.88743349	          2.79319697	         37.99405652	        -13.07918269	         -1.02292407	         -7.08391755	          0.02143026	          0.13059062	          0.02628424	          0.07126482	          0.18724093	          0.06432976	          0.10555024	          0.11904937	          0.10795519	          0.01001092	          0.01000516	          0.01214898	          0.01213432	          0.35773661	          0.02158001	          0.01000230	          0.01001352	          0.02292304	          0.01001180	          0.01213603	          0.12808058	          0.01007123	          0.01009391	          0.01000930	          0.01001207	          0.27201425	          0.19497294	          0.01001039	
          0.02559289	         -4.14520824	         -0.95406049	          7.98105002	          0.04004281	          0.98614682	         -0.00142107	         28.32578033	         -1.49969381	         -8.95449785	         -9.72923836	          3.06694206	          0.20215055	        -15.01586692	         -3.04496203	         -6.11535239	        -11.96918731	          1.52952306	         39.49250361	        -12.55033736	         -0.56272436	         -7.26269439	          0.02499976	          0.10763512	          0.02166414	          0.12391103	          0.20153616	          0.05308565	          0.08699787	          0.15888498	          0.08897859	          0.01000315	          0.01000479	          0.01001455	          0.01000201	          0.40148578	          0.02727789	          0.01000087	          0.01000257	          0.01889362	          0.01000358	          0.01000818	          0.10557061	          0.01000118	          0.01817538	          0.01001513	          0.01000378	          0.22543753	          0.16508512	          0.01000062	
          0.03838933	         -4.14787117	         -1.07755874	          7.90527794	          0.06011867	          0.98481476	         -0.00046648	         28.19069372	         -1.32266246	         -9.11392700	        -11.47964314	          2.51952444	          0.16937321	        -15.18179534	         -3.44880135	         -6.58599313	        -13.59079072	          0.18065553	         40.77160683	        -12.04972059	         -0.10181651	         -7.40602628	          0.02938196	          0.08871478	          0.01785624	          0.17179754	          0.23978875	          0.05148750	          0.07170648	          0.15334957	          0.07333775	          0.01000485	          0.07461355	          0.01000816	          0.01000625	          0.42281008	          0.08097679	          0.01000349	          0.01000224	          0.01557250	          0.02336532	          0.02197049	          0.08701659	          0.01000295	          0.01499291	          0.01000935	          0.01167191	          0.18580965	          0.13606637	          0.01000057	
          0.05118577	         -4.13494417	         -1.20381094	          7.80572276	          0.07991370	          0.98415122	          0.00056625	         28.11778069	         -1.14059051	         -9.23380667	        -13.39306690	          2.29717671	          0.13068726	        -14.97276081	         -3.89776824	         -7.07591143	        -15.85350108	         -1.22139723	         41.63082826	        -11.59502368	          0.36275371	         -7.51890552	          0.02619294	          0.07312032	          0.01471780	          0.19586433	          0.25856318	          0.04905716	          0.05910310	          0.17172493	          0.06044632	          0.01000450	          0.16757620	          0.01000968	          0.01000563	          0.42326739	          0.09633350	          0.01000470	          0.01000243	          0.01283520	          0.11039430	          0.02950822	          0.07172649	          0.01000101	          0.02123084	          0.01000357	          0.01000221	          0.15314747	          0.11214833	          0.01000158	
          0.06398222	         -4.11000839	         -1.31857713	          7.68136006	          0.09926777	          0.98428542	          0.00164333	         28.01238902	         -0.95172087	         -9.30595724	        -15.28425630	          2.42898412	          0.09739202	        -14.32555517	         -4.38556175	         -7.63894472	        -18.84806826	         -2.59067268	         41.69510926	        -11.20128045	          0.81679922	         -7.59844023	          0.02163510	          0.06026714	          0.01213135	          0.20274736	          0.28867650	          0.05119219	          0.04871529	          0.17410646	          0.04982098	          0.01000358	          0.19929290	          0.01000660	          0.01000336	          0.39451079	          0.09546787	          0.01000670	          0.01000274	          0.01057912	          0.16622426	          0.02819856	          0.05912624	          0.01000083	          0.01777604	          0.01000349	          0.01000187	          0.12622672	          0.09243460	          0.01000075	
